<svg width="547" height="1026" viewBox="0 0 547 1026" fill="none" xmlns="http://www.w3.org/2000/svg">
<g opacity="0.5">
<path d="M542.586 1048.81C542.438 1048.55 542.354 1048.26 542.385 1047.94C549.388 946.613 502.813 845.959 448.815 729.412C413.654 653.487 373.793 567.422 342.362 467.754C263.141 216.729 353.79 -1.57186 354.705 -3.77087C355.024 -4.55455 355.934 -4.90833 356.718 -4.58971C357.503 -4.27109 357.857 -3.36155 357.538 -2.57787C356.604 -0.410984 266.43 216.93 345.301 466.83C376.703 566.3 416.508 652.268 451.613 728.097C505.751 845.035 552.511 946.01 545.456 1048.14C545.391 1048.99 544.648 1049.63 543.828 1049.55C543.313 1049.54 542.828 1049.22 542.586 1048.81Z" fill="url(#paint0_linear_459_905)"/>
<path d="M479.733 1034.31C479.584 1034.05 479.5 1033.76 479.531 1033.44C486.534 932.117 439.96 831.463 385.961 714.916C350.801 638.991 310.94 552.926 279.509 453.258C200.256 202.251 290.918 -16.0999 291.852 -18.2668C292.171 -19.0505 293.081 -19.4042 293.865 -19.0856C294.649 -18.767 295.003 -17.8575 294.684 -17.0738C293.75 -14.9069 203.576 202.434 282.447 452.334C313.85 551.804 353.655 637.773 388.76 713.602C442.898 830.539 489.639 931.482 482.584 1033.61C482.519 1034.46 481.776 1035.1 480.956 1035.02C480.408 1035.04 479.974 1034.73 479.733 1034.31Z" fill="url(#paint1_linear_459_905)"/>
<path d="M416.829 1019.8C416.68 1019.54 416.596 1019.25 416.627 1018.93C423.63 917.608 377.055 816.954 323.057 700.407C287.896 624.481 248.036 538.417 216.605 438.749C137.383 187.723 228.032 -30.5772 228.948 -32.7762C229.266 -33.5599 230.177 -33.9136 230.961 -33.595C231.745 -33.2764 232.099 -32.3669 231.78 -31.5832C230.846 -29.4163 140.672 187.925 219.543 437.825C250.945 537.295 290.75 623.263 325.855 699.092C379.993 816.03 426.735 916.973 419.68 1019.1C419.615 1019.95 418.872 1020.59 418.052 1020.51C417.523 1020.56 417.07 1020.22 416.829 1019.8Z" fill="url(#paint2_linear_459_905)"/>
<path d="M353.943 1005.32C353.794 1005.07 353.71 1004.77 353.741 1004.46C360.744 903.131 314.17 802.477 260.171 685.93C225.011 610.004 185.15 523.939 153.719 424.271C74.4979 173.246 165.16 -45.1052 166.062 -47.2536C166.381 -48.0372 167.291 -48.391 168.075 -48.0724C168.859 -47.7538 169.213 -46.8442 168.894 -46.0606C167.96 -43.8937 77.7862 173.448 156.657 423.347C188.06 522.817 227.865 608.786 262.97 684.615C317.108 801.552 363.849 902.496 356.794 1004.62C356.729 1005.47 355.986 1006.12 355.166 1006.03C354.651 1006.03 354.184 1005.74 353.943 1005.32Z" fill="url(#paint3_linear_459_905)"/>
<path d="M331.229 132.848C331.229 132.848 320.09 123.211 319.738 128.983C319.386 134.755 291.442 168.742 285.216 168.65C278.991 168.558 289.176 150.944 281.145 148.766C273.133 146.621 264.897 161.226 270.344 168.578C275.824 175.912 285.834 175.062 294.485 167.629C303.149 160.145 315.139 144.616 317.847 141.811C320.556 139.006 324.523 141.643 324.519 149.057C324.483 156.488 335.65 162.982 343.276 162.308C350.884 161.603 359.738 153.409 359.738 153.409C359.738 153.409 355.735 158.204 348.057 150.254C340.415 142.369 334.486 135.295 331.229 132.848Z" fill="url(#paint4_linear_459_905)"/>
<path d="M140.149 171.734C140.149 171.734 129.009 162.098 128.657 167.87C128.306 173.642 100.362 207.629 94.1361 207.537C87.9107 207.445 98.0952 189.831 90.0648 187.653C82.0529 185.508 73.8164 200.113 79.2639 207.465C84.7434 214.798 94.754 213.949 103.405 206.515C112.069 199.031 124.058 183.503 126.767 180.698C129.476 177.893 133.442 180.53 133.439 187.943C133.403 195.375 144.569 201.869 152.196 201.195C159.804 200.489 168.658 192.296 168.658 192.296C168.658 192.296 164.655 197.09 156.995 189.173C149.335 181.255 143.405 174.182 140.149 171.734Z" fill="url(#paint5_linear_459_905)"/>
<path d="M523.884 932.071C523.884 932.071 523.155 920.497 523.941 908.649C524.726 896.801 519.27 893.737 516.14 897C512.996 900.313 482.027 908.587 461.54 905.843C441.052 903.1 457.83 894.747 455.875 884.909C453.921 875.07 443.175 875.316 437.445 887.061C431.714 898.807 442.765 911.407 449.615 909.983C456.446 908.526 489.55 907.288 497.909 907.734C506.299 908.161 507.75 911.265 504.706 922.617C499.983 940.336 510.779 951.456 510.779 951.456C510.779 951.456 474.066 952.977 462.485 953.705C450.904 954.432 437.192 957.333 433.607 950.534C429.99 943.753 438.864 928.694 427.687 928.118C416.51 927.542 412.134 951.057 420.874 957.281C429.613 963.505 450.333 958.489 466.232 957.668C482.132 956.847 524.9 956.459 528.898 952.696C532.901 949.015 523.307 943.241 523.884 932.071Z" fill="url(#paint6_linear_459_905)"/>
<path d="M371.031 792.799C371.031 792.799 370.539 784.602 371.068 776.243C371.629 767.866 367.757 765.688 365.552 768.031C363.348 770.374 341.43 776.209 326.945 774.286C312.461 772.362 324.314 766.466 322.948 759.5C321.549 752.554 313.976 752.725 309.901 761.031C305.859 769.318 313.68 778.256 318.491 777.236C323.335 776.198 346.716 775.344 352.671 775.635C358.594 775.944 359.607 778.144 357.492 786.132C354.155 798.682 361.778 806.535 361.778 806.535C361.778 806.535 335.801 807.644 327.598 808.137C319.395 808.629 309.708 810.706 307.191 805.904C304.642 801.12 310.921 790.472 303.014 790.065C295.106 789.659 292.012 806.266 298.216 810.697C304.4 815.096 319.072 811.557 330.314 810.982C341.555 810.407 371.79 810.139 374.624 807.476C377.406 804.8 370.624 800.702 371.031 792.799Z" fill="url(#paint7_linear_459_905)"/>
<path d="M356.193 857.264C356.193 857.264 355.807 851.104 356.225 844.78C356.644 838.456 353.736 836.835 352.045 838.582C350.353 840.329 333.871 844.741 322.925 843.304C312.011 841.848 320.923 837.391 319.91 832.149C318.865 826.927 313.151 827.053 310.085 833.32C307.019 839.588 312.91 846.298 316.572 845.513C320.233 844.729 337.856 844.07 342.327 844.317C346.799 844.564 347.58 846.213 345.963 852.243C343.455 861.702 349.2 867.64 349.2 867.64C349.2 867.64 329.607 868.449 323.444 868.836C317.28 869.222 309.99 870.773 308.026 867.151C306.113 863.543 310.819 855.515 304.865 855.224C298.891 854.901 296.585 867.455 301.241 870.766C305.897 874.077 316.963 871.418 325.419 870.994C333.876 870.57 356.68 870.349 358.821 868.342C360.995 866.317 355.87 863.234 356.193 857.264Z" fill="url(#paint8_linear_459_905)"/>
<path d="M296.249 71.5542C296.249 71.5542 295.756 63.3565 296.285 54.9977C296.847 46.6204 292.974 44.4427 290.77 46.7855C288.565 49.1283 266.647 54.9639 252.163 53.0405C237.678 51.1171 249.531 45.2204 248.165 38.2551C246.766 31.3084 239.193 31.4801 235.118 39.7857C231.076 48.0726 238.897 57.0109 243.709 55.9909C248.552 54.9524 271.934 54.0983 277.888 54.3893C283.811 54.6989 284.825 56.8985 282.71 64.887C279.372 77.4365 286.995 85.2896 286.995 85.2896C286.995 85.2896 261.018 86.3992 252.815 86.8912C244.613 87.3833 234.925 89.4603 232.408 84.6582C229.859 79.8748 236.138 69.2265 228.231 68.8199C220.323 68.4133 217.23 85.0203 223.433 89.4516C229.618 93.8507 244.29 90.3113 255.531 89.7367C266.772 89.1621 297.007 88.8941 299.841 86.231C302.624 83.5543 295.81 79.4755 296.249 71.5542Z" fill="url(#paint9_linear_459_905)"/>
<path d="M262.643 1223.02C262.494 1222.76 262.41 1222.46 262.441 1222.15C270.448 1106.53 217.305 991.764 155.757 858.883C115.682 772.299 70.2425 674.203 34.3983 560.589C-12.799 411.074 -6.46204 272.907 7.16827 183.351C21.9117 86.2989 48.2228 23.7388 48.4687 23.1257C48.7875 22.342 49.6976 21.9882 50.4818 22.3068C51.2659 22.6254 51.6199 23.535 51.3011 24.3187C51.0552 24.9318 24.8762 87.2014 10.1958 183.918C-3.37155 273.138 -9.64188 410.752 37.3363 559.665C73.152 673.081 118.504 771.099 158.574 857.601C220.294 990.854 273.591 1105.96 265.531 1222.38C265.466 1223.23 264.723 1223.87 263.871 1223.81C263.318 1223.74 262.884 1223.43 262.643 1223.02Z" fill="url(#paint10_linear_459_905)"/>
<path d="M190.935 1206.47C190.787 1206.22 190.703 1205.92 190.733 1205.61C198.741 1089.99 145.598 975.223 84.0493 842.342C43.9744 755.758 -1.46509 657.662 -37.3093 544.048C-84.5065 394.533 -78.1696 256.367 -64.5393 166.81C-49.7959 69.7579 -23.4848 7.19783 -23.2389 6.58473C-22.9201 5.80105 -22.01 5.44727 -21.2258 5.76589C-20.4417 6.08451 -20.0877 6.99405 -20.4065 7.77773C-20.6524 8.39083 -46.8313 70.6605 -61.5118 167.377C-75.0791 256.597 -81.3495 394.211 -34.3713 543.124C1.44441 656.54 46.7961 754.559 86.866 841.06C148.586 974.313 201.883 1089.42 193.824 1205.84C193.759 1206.69 193.016 1207.33 192.164 1207.27C191.611 1207.2 191.177 1206.89 190.935 1206.47Z" fill="url(#paint11_linear_459_905)"/>
<path d="M119.228 1189.93C119.079 1189.68 118.995 1189.38 119.026 1189.06C127.033 1073.45 73.8903 958.682 12.3419 825.801C-27.733 739.217 -73.1725 641.121 -109.017 527.507C-156.214 377.992 -149.877 239.826 -136.247 150.269C-121.503 53.2169 -95.2244 -9.32468 -94.9463 -9.95633C-94.6275 -10.74 -93.7174 -11.0938 -92.9333 -10.7752C-92.1491 -10.4565 -91.7952 -9.54701 -92.114 -8.76332C-92.3599 -8.15022 -118.539 54.1194 -133.219 150.836C-146.787 240.056 -153.057 377.67 -106.079 526.583C-70.263 639.999 -24.9113 738.017 15.1586 824.519C76.879 957.772 130.176 1072.88 122.117 1189.3C122.051 1190.15 121.308 1190.79 120.456 1190.72C119.922 1190.69 119.488 1190.38 119.228 1189.93Z" fill="url(#paint12_linear_459_905)"/>
<path d="M47.5389 1173.42C47.3904 1173.17 47.3062 1172.87 47.337 1172.56C55.3445 1056.94 2.2014 942.173 -59.347 809.292C-99.4219 722.708 -144.861 624.612 -180.706 510.999C-227.903 361.483 -221.566 223.317 -207.936 133.761C-193.192 36.7081 -166.881 -25.852 -166.635 -26.4651C-166.316 -27.2488 -165.406 -27.6025 -164.622 -27.2839C-163.838 -26.9653 -163.484 -26.0558 -163.803 -25.2721C-164.049 -24.659 -190.228 37.6106 -204.908 134.327C-218.475 223.547 -224.746 361.161 -177.768 510.074C-141.952 623.49 -96.6002 721.509 -56.5303 808.01C5.19014 941.263 58.4867 1056.37 50.4276 1172.79C50.3623 1173.64 49.6192 1174.28 48.7672 1174.22C48.2465 1174.13 47.7802 1173.84 47.5389 1173.42Z" fill="url(#paint13_linear_459_905)"/>
<path d="M-119.552 304.191C-119.552 304.191 -132.235 293.217 -132.638 299.79C-133.074 306.381 -164.874 345.12 -171.997 345.033C-179.107 344.894 -167.474 324.816 -176.633 322.391C-185.811 319.933 -195.171 336.6 -188.932 344.951C-182.693 353.303 -171.274 352.369 -161.408 343.849C-151.542 335.329 -137.872 317.589 -134.769 314.428C-131.685 311.234 -127.113 314.251 -127.154 322.713C-127.194 331.176 -114.458 338.606 -105.741 337.817C-97.0239 337.028 -86.9591 327.665 -86.9591 327.665C-86.9591 327.665 -91.5529 333.143 -100.295 324.094C-109.056 315.013 -115.842 306.976 -119.552 304.191Z" fill="url(#paint14_linear_459_905)"/>
<path d="M227.706 916.28C227.706 916.28 215.023 905.307 214.62 911.88C214.184 918.471 182.384 957.21 175.261 957.122C168.151 956.984 179.784 936.906 170.625 934.48C161.447 932.022 152.087 948.689 158.326 957.041C164.565 965.393 175.984 964.458 185.85 955.938C195.716 947.418 209.386 929.679 212.47 926.485C215.554 923.292 220.126 926.308 220.086 934.771C220.045 943.233 232.782 950.663 241.499 949.875C250.216 949.086 260.28 939.723 260.28 939.723C260.28 939.723 255.687 945.201 246.944 936.151C238.202 927.102 231.416 919.066 227.706 916.28Z" fill="url(#paint15_linear_459_905)"/>
<path d="M55.8836 928.848C55.8836 928.848 43.2004 917.874 42.7969 924.447C42.3612 931.038 10.5616 969.778 3.43832 969.69C-3.67134 969.551 7.96179 949.473 -1.19777 947.048C-10.3759 944.59 -19.7359 961.257 -13.4967 969.609C-7.25745 977.96 4.16162 977.026 14.0275 968.506C23.8934 959.986 37.5628 942.246 40.6473 939.053C43.7318 935.859 48.3035 938.876 48.2629 947.338C48.2223 955.801 60.9587 963.231 69.6758 962.442C78.3928 961.653 88.4575 952.29 88.4575 952.29C88.4575 952.29 83.8638 957.768 75.1214 948.719C66.3468 939.688 59.5932 931.634 55.8836 928.848Z" fill="url(#paint16_linear_459_905)"/>
<path d="M-79.8582 188.372C-79.8582 188.372 -80.6676 175.174 -79.7654 161.674C-78.8633 148.173 -85.0948 144.658 -88.6601 148.429C-92.2255 152.199 -127.549 161.615 -150.902 158.511C-174.255 155.408 -155.121 145.867 -157.358 134.649C-159.595 123.431 -171.85 123.734 -178.379 137.14C-184.927 150.514 -172.321 164.916 -164.487 163.266C-156.704 161.602 -118.987 160.187 -109.394 160.692C-99.8009 161.197 -98.1921 164.724 -101.625 177.628C-107.014 197.83 -94.7098 210.521 -94.7098 210.521C-94.7098 210.521 -136.564 212.267 -149.803 213.095C-163.009 213.904 -178.626 217.217 -182.749 209.487C-186.872 201.756 -176.727 184.593 -189.488 183.946C-202.249 183.298 -207.209 210.106 -197.236 217.203C-187.264 224.301 -163.61 218.577 -145.505 217.64C-127.4 216.704 -78.6337 216.238 -74.0668 211.975C-69.5827 207.718 -80.538 201.145 -79.8582 188.372Z" fill="url(#paint17_linear_459_905)"/>
<path d="M216.229 1054.97C216.229 1054.97 215.635 1045.63 216.292 1036.09C216.917 1026.56 212.509 1024.05 209.974 1026.71C207.44 1029.37 182.478 1036.02 165.966 1033.85C149.436 1031.65 162.984 1024.91 161.411 1016.99C159.838 1009.07 151.169 1009.28 146.565 1018.74C141.962 1028.21 150.838 1038.38 156.372 1037.2C161.906 1036.02 188.556 1035.04 195.312 1035.38C202.068 1035.73 203.216 1038.23 200.821 1047.37C196.989 1061.66 205.727 1070.63 205.727 1070.63C205.727 1070.63 176.099 1071.87 166.787 1072.45C157.443 1073.04 146.408 1075.38 143.501 1069.9C140.594 1064.43 147.732 1052.3 138.724 1051.84C129.698 1051.35 126.182 1070.35 133.235 1075.36C140.288 1080.37 156.993 1076.34 169.808 1075.67C182.624 1075 217.113 1074.68 220.309 1071.68C223.486 1068.65 215.739 1063.99 216.229 1054.97Z" fill="url(#paint18_linear_459_905)"/>
<path d="M199.29 1128.49C199.29 1128.49 198.867 1121.45 199.332 1114.24C199.798 1107.03 196.493 1105.17 194.6 1107.16C192.675 1109.17 173.852 1114.21 161.413 1112.56C148.974 1110.91 159.145 1105.81 157.972 1099.85C156.781 1093.86 150.239 1094.03 146.776 1101.17C143.313 1108.31 150.01 1115.97 154.182 1115.1C158.336 1114.21 178.448 1113.48 183.57 1113.74C188.659 1114.02 189.537 1115.91 187.722 1122.78C184.86 1133.56 191.419 1140.31 191.419 1140.31C191.419 1140.31 169.106 1141.23 162.031 1141.68C154.988 1142.1 146.662 1143.86 144.471 1139.77C142.261 1135.65 147.681 1126.48 140.874 1126.12C134.067 1125.77 131.4 1140.07 136.717 1143.86C142.033 1147.65 154.64 1144.61 164.289 1144.1C173.937 1143.59 199.95 1143.36 202.357 1141.07C204.764 1138.78 198.947 1135.24 199.29 1128.49Z" fill="url(#paint19_linear_459_905)"/>
<path d="M-18.4411 108.897C-18.4411 108.897 -19.0352 99.5587 -18.3779 90.0121C-17.7527 80.4841 -22.161 77.9729 -24.6953 80.6346C-27.2297 83.2964 -52.1922 89.9463 -68.7037 87.7789C-85.2338 85.5792 -71.6857 78.8329 -73.2588 70.916C-74.8319 62.9992 -83.5009 63.2034 -88.1045 72.6708C-92.708 82.1383 -83.8317 92.3097 -78.298 91.1301C-72.7643 89.9504 -46.1143 88.9668 -39.3583 89.3094C-32.6022 89.6521 -31.4538 92.1594 -33.8488 101.295C-37.6804 115.586 -28.9428 124.552 -28.9428 124.552C-28.9428 124.552 -58.5706 125.798 -67.8825 126.373C-77.2266 126.967 -88.2619 129.307 -91.1686 123.831C-94.0753 118.354 -86.9375 106.225 -95.9455 105.768C-104.972 105.279 -108.488 124.271 -101.435 129.283C-94.3819 134.295 -77.677 130.268 -64.8615 129.599C-52.0461 128.93 -17.5568 128.606 -14.3609 125.606C-11.1837 122.573 -18.9304 117.918 -18.4411 108.897Z" fill="url(#paint20_linear_459_905)"/>
</g>
<defs>
<linearGradient id="paint0_linear_459_905" x1="0.52808" y1="38.959" x2="590.61" y2="937.361" gradientUnits="userSpaceOnUse">
<stop stop-color="#F8F8F8" stop-opacity="0.11"/>
<stop offset="1" stop-color="#F8F8F8" stop-opacity="0"/>
</linearGradient>
<linearGradient id="paint1_linear_459_905" x1="0.52808" y1="38.959" x2="590.61" y2="937.361" gradientUnits="userSpaceOnUse">
<stop stop-color="#F8F8F8" stop-opacity="0.11"/>
<stop offset="1" stop-color="#F8F8F8" stop-opacity="0"/>
</linearGradient>
<linearGradient id="paint2_linear_459_905" x1="0.52808" y1="38.959" x2="590.61" y2="937.361" gradientUnits="userSpaceOnUse">
<stop stop-color="#F8F8F8" stop-opacity="0.11"/>
<stop offset="1" stop-color="#F8F8F8" stop-opacity="0"/>
</linearGradient>
<linearGradient id="paint3_linear_459_905" x1="0.52808" y1="38.959" x2="590.61" y2="937.361" gradientUnits="userSpaceOnUse">
<stop stop-color="#F8F8F8" stop-opacity="0.11"/>
<stop offset="1" stop-color="#F8F8F8" stop-opacity="0"/>
</linearGradient>
<linearGradient id="paint4_linear_459_905" x1="0.52808" y1="38.959" x2="590.61" y2="937.361" gradientUnits="userSpaceOnUse">
<stop stop-color="#F8F8F8" stop-opacity="0.11"/>
<stop offset="1" stop-color="#F8F8F8" stop-opacity="0"/>
</linearGradient>
<linearGradient id="paint5_linear_459_905" x1="0.52808" y1="38.959" x2="590.61" y2="937.361" gradientUnits="userSpaceOnUse">
<stop stop-color="#F8F8F8" stop-opacity="0.11"/>
<stop offset="1" stop-color="#F8F8F8" stop-opacity="0"/>
</linearGradient>
<linearGradient id="paint6_linear_459_905" x1="0.52808" y1="38.959" x2="590.61" y2="937.361" gradientUnits="userSpaceOnUse">
<stop stop-color="#F8F8F8" stop-opacity="0.11"/>
<stop offset="1" stop-color="#F8F8F8" stop-opacity="0"/>
</linearGradient>
<linearGradient id="paint7_linear_459_905" x1="0.52808" y1="38.959" x2="590.61" y2="937.361" gradientUnits="userSpaceOnUse">
<stop stop-color="#F8F8F8" stop-opacity="0.11"/>
<stop offset="1" stop-color="#F8F8F8" stop-opacity="0"/>
</linearGradient>
<linearGradient id="paint8_linear_459_905" x1="0.52808" y1="38.959" x2="590.61" y2="937.361" gradientUnits="userSpaceOnUse">
<stop stop-color="#F8F8F8" stop-opacity="0.11"/>
<stop offset="1" stop-color="#F8F8F8" stop-opacity="0"/>
</linearGradient>
<linearGradient id="paint9_linear_459_905" x1="0.52808" y1="38.959" x2="590.61" y2="937.361" gradientUnits="userSpaceOnUse">
<stop stop-color="#F8F8F8" stop-opacity="0.11"/>
<stop offset="1" stop-color="#F8F8F8" stop-opacity="0"/>
</linearGradient>
<linearGradient id="paint10_linear_459_905" x1="0.52808" y1="38.959" x2="590.61" y2="937.361" gradientUnits="userSpaceOnUse">
<stop stop-color="#F8F8F8" stop-opacity="0.11"/>
<stop offset="1" stop-color="#F8F8F8" stop-opacity="0"/>
</linearGradient>
<linearGradient id="paint11_linear_459_905" x1="0.52808" y1="38.959" x2="590.61" y2="937.361" gradientUnits="userSpaceOnUse">
<stop stop-color="#F8F8F8" stop-opacity="0.11"/>
<stop offset="1" stop-color="#F8F8F8" stop-opacity="0"/>
</linearGradient>
<linearGradient id="paint12_linear_459_905" x1="0.52808" y1="38.959" x2="590.61" y2="937.361" gradientUnits="userSpaceOnUse">
<stop stop-color="#F8F8F8" stop-opacity="0.11"/>
<stop offset="1" stop-color="#F8F8F8" stop-opacity="0"/>
</linearGradient>
<linearGradient id="paint13_linear_459_905" x1="0.52808" y1="38.959" x2="590.61" y2="937.361" gradientUnits="userSpaceOnUse">
<stop stop-color="#F8F8F8" stop-opacity="0.11"/>
<stop offset="1" stop-color="#F8F8F8" stop-opacity="0"/>
</linearGradient>
<linearGradient id="paint14_linear_459_905" x1="0.52808" y1="38.959" x2="590.61" y2="937.361" gradientUnits="userSpaceOnUse">
<stop stop-color="#F8F8F8" stop-opacity="0.11"/>
<stop offset="1" stop-color="#F8F8F8" stop-opacity="0"/>
</linearGradient>
<linearGradient id="paint15_linear_459_905" x1="0.52808" y1="38.959" x2="590.61" y2="937.361" gradientUnits="userSpaceOnUse">
<stop stop-color="#F8F8F8" stop-opacity="0.11"/>
<stop offset="1" stop-color="#F8F8F8" stop-opacity="0"/>
</linearGradient>
<linearGradient id="paint16_linear_459_905" x1="0.52808" y1="38.959" x2="590.61" y2="937.361" gradientUnits="userSpaceOnUse">
<stop stop-color="#F8F8F8" stop-opacity="0.11"/>
<stop offset="1" stop-color="#F8F8F8" stop-opacity="0"/>
</linearGradient>
<linearGradient id="paint17_linear_459_905" x1="0.52808" y1="38.959" x2="590.61" y2="937.361" gradientUnits="userSpaceOnUse">
<stop stop-color="#F8F8F8" stop-opacity="0.11"/>
<stop offset="1" stop-color="#F8F8F8" stop-opacity="0"/>
</linearGradient>
<linearGradient id="paint18_linear_459_905" x1="0.52808" y1="38.959" x2="590.61" y2="937.361" gradientUnits="userSpaceOnUse">
<stop stop-color="#F8F8F8" stop-opacity="0.11"/>
<stop offset="1" stop-color="#F8F8F8" stop-opacity="0"/>
</linearGradient>
<linearGradient id="paint19_linear_459_905" x1="0.52808" y1="38.959" x2="590.61" y2="937.361" gradientUnits="userSpaceOnUse">
<stop stop-color="#F8F8F8" stop-opacity="0.11"/>
<stop offset="1" stop-color="#F8F8F8" stop-opacity="0"/>
</linearGradient>
<linearGradient id="paint20_linear_459_905" x1="0.52808" y1="38.959" x2="590.61" y2="937.361" gradientUnits="userSpaceOnUse">
<stop stop-color="#F8F8F8" stop-opacity="0.11"/>
<stop offset="1" stop-color="#F8F8F8" stop-opacity="0"/>
</linearGradient>
</defs>
</svg>
