<svg width="192" height="74" viewBox="0 0 192 74" fill="none" xmlns="http://www.w3.org/2000/svg">
<path d="M191.01 54.2248H185.886V39.3376C185.886 37.8786 185.564 36.7838 184.923 36.0531C184.28 35.3236 183.244 34.9583 181.814 34.9583H177.041V54.2248H171.918V34.9583H164.431C163.905 34.9583 163.547 35.0531 163.358 35.2427C163.167 35.4334 163.073 35.8635 163.073 36.5341V54.2236H157.951V35.045C157.951 33.9062 158.169 33.0311 158.607 32.4183C159.249 31.4842 160.417 31.0171 162.11 31.0171H182.998C185.624 31.0171 187.596 31.6299 188.909 32.8565C190.31 34.1698 191.011 36.0681 191.011 38.548V54.2236L191.01 54.2248Z" fill="white"/>
<path d="M98.6748 50.0652C98.6748 51.5831 98.2655 52.678 97.4493 53.3485C96.7487 53.9335 95.5371 54.2248 93.8145 54.2248H85.6258C82.939 54.2248 80.9251 53.641 79.5829 52.4733C78.0059 51.1022 77.2186 48.8247 77.2186 45.643V31.0183H82.3413V44.724C82.3413 46.6512 82.6327 48.0084 83.2177 48.7969C83.9472 49.7888 85.3333 50.286 87.3773 50.286H91.6249C92.2966 50.286 92.7856 50.1322 93.092 49.8258C93.3983 49.5195 93.5521 49.0455 93.5521 48.4027V31.0195H98.6748V50.0675V50.0652Z" fill="white"/>
<path d="M98.6748 69.8403C98.6748 71.3583 98.2655 72.4531 97.4493 73.1236C96.7487 73.7086 95.5371 74 93.8145 74H85.6258C82.939 74 80.9251 73.4161 79.5829 72.2485C78.0059 70.8773 77.2186 68.5998 77.2186 65.4182V64.091H82.3413V64.4979C82.3413 66.4252 82.6327 67.7824 83.2177 68.5709C83.9472 69.5628 85.3333 70.0599 87.3773 70.0599H91.6249C92.2966 70.0599 92.7856 69.9062 93.092 69.5998C93.3983 69.2935 93.5521 68.8195 93.5521 68.1767V50.7935H98.6748V69.8414V69.8403Z" fill="white"/>
<path d="M48.9657 68.142C43.9251 68.142 39.8244 64.0413 39.8244 59.0007V26.1014C39.8244 23.6932 37.8659 21.7348 35.4578 21.7348C33.0496 21.7348 31.09 23.6932 31.09 26.1014V44.0257C31.09 49.0663 26.9893 53.167 21.9487 53.167C16.908 53.167 12.8073 49.0663 12.8073 44.0257V38.8914C12.8073 37.5503 11.716 36.459 10.3749 36.459H2.38736C1.06824 36.459 0 35.3907 0 34.0716C0 32.7525 1.06824 31.6842 2.38736 31.6842H10.3749C14.3484 31.6842 17.5821 34.9179 17.5821 38.8914V44.0257C17.5821 46.4327 19.5405 48.3923 21.9487 48.3923C24.3568 48.3923 26.3153 46.4338 26.3153 44.0257V26.1014C26.3153 21.0608 30.416 16.9601 35.4566 16.9601C40.4972 16.9601 44.5991 21.0608 44.5991 26.1014V59.0007C44.5991 61.4077 46.5575 63.3673 48.9657 63.3673C51.3739 63.3673 53.3323 61.4089 53.3323 59.0007V9.14133C53.3323 4.10071 57.433 0 62.4736 0C67.5143 0 71.615 4.10071 71.615 9.14133V51.6294C71.615 54.0375 73.5734 55.996 75.9816 55.996H88.686C90.0051 55.996 91.0734 57.0642 91.0734 58.3833C91.0734 59.7025 90.0051 60.7707 88.686 60.7707H75.9839C70.9421 60.7707 66.8414 56.67 66.8414 51.6294V9.14133C66.8414 6.73432 64.883 4.77472 62.4748 4.77472C60.0666 4.77472 58.1082 6.73316 58.1082 9.14133V59.0007C58.1082 64.0413 54.0075 68.142 48.9669 68.142H48.9657Z" fill="white"/>
<path d="M127.095 50.0653C127.095 51.5832 126.686 52.6781 125.87 53.3486C125.169 53.9336 123.958 54.2249 122.235 54.2249H114.046C111.36 54.2249 109.346 53.6411 108.003 52.4734C106.426 51.1023 105.639 48.8248 105.639 45.6432V34.2486H110.762V44.7241C110.762 46.6513 111.053 48.0086 111.638 48.797C112.368 49.789 113.754 50.2861 115.798 50.2861H120.045C120.717 50.2861 121.206 50.1323 121.512 49.826C121.819 49.5196 121.973 49.0456 121.973 48.4028V5.45807H127.095V50.0676V50.0653Z" fill="white"/>
<path d="M137.18 5.45688H111.533V10.5796H137.18V5.45688Z" fill="white"/>
<path d="M151.974 50.0086C151.974 51.5265 151.564 52.6214 150.748 53.2919C150.048 53.8769 148.836 54.1682 147.113 54.1682H138.925C136.238 54.1682 134.224 53.5844 132.882 52.4167C131.305 51.0456 130.517 48.7681 130.517 45.5865V40.9817L135.64 40.9169V44.6673C135.64 46.5946 135.931 47.9519 136.516 48.7403C137.246 49.7323 138.632 50.2282 140.676 50.2282H144.924C145.595 50.2282 146.084 50.0745 146.391 49.7681C146.697 49.4617 146.851 48.9877 146.851 48.3449V40.5239H151.974V50.0086Z" fill="white"/>
<path d="M130.517 35.1768C130.517 33.6588 130.927 32.564 131.743 31.8935C132.444 31.3085 133.655 31.0171 135.378 31.0171H143.566C146.253 31.0171 148.267 31.601 149.609 32.7686C151.186 34.1398 151.974 36.4173 151.974 39.5989V44.1459H146.851V40.5192C146.851 38.5919 146.56 37.2347 145.975 36.4462C145.245 35.4543 143.859 34.9571 141.815 34.9571H137.567C136.896 34.9571 136.407 35.1109 136.1 35.4173C135.794 35.7236 135.64 36.1976 135.64 36.8404V44.1459H130.517V35.1768Z" fill="white"/>
<path d="M149.192 52.411C150.534 53.5787 152.548 54.1625 155.235 54.1625H156.326V50.2017C154.642 50.1034 153.474 49.6144 152.827 48.7323C152.243 47.9438 151.95 46.5865 151.95 44.6593V41.7956H147.002L147.019 45.5657C147.019 48.7473 147.615 51.0387 149.191 52.4098L149.192 52.411Z" fill="white"/>
</svg>
